<mxfile host="app.diagrams.net" agent="Mozilla/5.0 (Windows NT 10.0; Win64; x64) AppleWebKit/537.36 (KHTML, like Gecko) Chrome/131.0.0.0 Safari/537.36 Edg/131.0.0.0" version="24.8.6">
  <diagram name="Page-1" id="Kn6OawijGRHmCj4REJfi">
    <mxGraphModel dx="1892" dy="565" grid="1" gridSize="10" guides="1" tooltips="1" connect="1" arrows="1" fold="1" page="1" pageScale="1" pageWidth="850" pageHeight="1100" math="0" shadow="0">
      <root>
        <mxCell id="0" />
        <mxCell id="1" parent="0" />
        <mxCell id="KAoslI8Gk1G8vBF-a-_P-1" value="แก้ไขโจทย์ปัญหา" style="swimlane;fontFamily=Sarabun;fontSource=https%3A%2F%2Ffonts.googleapis.com%2Fcss%3Ffamily%3DSarabun;" vertex="1" parent="1">
          <mxGeometry x="-745" y="50" width="640" height="630" as="geometry" />
        </mxCell>
        <mxCell id="KAoslI8Gk1G8vBF-a-_P-4" value="OUTPUT&lt;div&gt;&lt;br&gt;&lt;/div&gt;&lt;div&gt;Hello, I&#39;m Javis (RMUTL-Version).&lt;/div&gt;" style="shape=parallelogram;perimeter=parallelogramPerimeter;whiteSpace=wrap;html=1;fixedSize=1;" vertex="1" parent="KAoslI8Gk1G8vBF-a-_P-1">
          <mxGeometry x="208" y="190" width="225" height="60" as="geometry" />
        </mxCell>
        <mxCell id="KAoslI8Gk1G8vBF-a-_P-5" value="OUTPUT&lt;div&gt;&lt;br&gt;&lt;/div&gt;&lt;div&gt;This is my first time to coding with C language.&lt;/div&gt;" style="shape=parallelogram;perimeter=parallelogramPerimeter;whiteSpace=wrap;html=1;fixedSize=1;" vertex="1" parent="KAoslI8Gk1G8vBF-a-_P-1">
          <mxGeometry x="177" y="310" width="287" height="60" as="geometry" />
        </mxCell>
        <mxCell id="KAoslI8Gk1G8vBF-a-_P-6" value="OUTPUT&lt;div&gt;&lt;br&gt;&lt;/div&gt;&lt;div&gt;Today is my birthday.&lt;/div&gt;" style="shape=parallelogram;perimeter=parallelogramPerimeter;whiteSpace=wrap;html=1;fixedSize=1;" vertex="1" parent="KAoslI8Gk1G8vBF-a-_P-1">
          <mxGeometry x="248" y="430" width="145" height="60" as="geometry" />
        </mxCell>
        <mxCell id="KAoslI8Gk1G8vBF-a-_P-8" value="" style="endArrow=classic;html=1;rounded=0;entryX=0.5;entryY=0;entryDx=0;entryDy=0;exitX=0.5;exitY=1;exitDx=0;exitDy=0;" edge="1" parent="KAoslI8Gk1G8vBF-a-_P-1" source="KAoslI8Gk1G8vBF-a-_P-4" target="KAoslI8Gk1G8vBF-a-_P-5">
          <mxGeometry width="50" height="50" relative="1" as="geometry">
            <mxPoint x="330" y="80" as="sourcePoint" />
            <mxPoint x="330" y="130" as="targetPoint" />
          </mxGeometry>
        </mxCell>
        <mxCell id="KAoslI8Gk1G8vBF-a-_P-9" value="" style="endArrow=classic;html=1;rounded=0;entryX=0.5;entryY=0;entryDx=0;entryDy=0;exitX=0.5;exitY=1;exitDx=0;exitDy=0;" edge="1" parent="KAoslI8Gk1G8vBF-a-_P-1" source="KAoslI8Gk1G8vBF-a-_P-5" target="KAoslI8Gk1G8vBF-a-_P-6">
          <mxGeometry width="50" height="50" relative="1" as="geometry">
            <mxPoint x="340" y="90" as="sourcePoint" />
            <mxPoint x="340" y="140" as="targetPoint" />
          </mxGeometry>
        </mxCell>
        <mxCell id="KAoslI8Gk1G8vBF-a-_P-12" style="edgeStyle=orthogonalEdgeStyle;rounded=0;orthogonalLoop=1;jettySize=auto;html=1;exitX=0.5;exitY=1;exitDx=0;exitDy=0;exitPerimeter=0;entryX=0.5;entryY=0;entryDx=0;entryDy=0;" edge="1" parent="KAoslI8Gk1G8vBF-a-_P-1" source="KAoslI8Gk1G8vBF-a-_P-11" target="KAoslI8Gk1G8vBF-a-_P-4">
          <mxGeometry relative="1" as="geometry" />
        </mxCell>
        <mxCell id="KAoslI8Gk1G8vBF-a-_P-11" value="START" style="strokeWidth=2;html=1;shape=mxgraph.flowchart.terminator;whiteSpace=wrap;" vertex="1" parent="KAoslI8Gk1G8vBF-a-_P-1">
          <mxGeometry x="270" y="70" width="100" height="60" as="geometry" />
        </mxCell>
        <mxCell id="KAoslI8Gk1G8vBF-a-_P-13" value="END" style="strokeWidth=2;html=1;shape=mxgraph.flowchart.terminator;whiteSpace=wrap;" vertex="1" parent="KAoslI8Gk1G8vBF-a-_P-1">
          <mxGeometry x="270.5" y="550" width="100" height="60" as="geometry" />
        </mxCell>
        <mxCell id="KAoslI8Gk1G8vBF-a-_P-14" style="edgeStyle=orthogonalEdgeStyle;rounded=0;orthogonalLoop=1;jettySize=auto;html=1;exitX=0.5;exitY=1;exitDx=0;exitDy=0;entryX=0.5;entryY=0;entryDx=0;entryDy=0;entryPerimeter=0;" edge="1" parent="KAoslI8Gk1G8vBF-a-_P-1" source="KAoslI8Gk1G8vBF-a-_P-6" target="KAoslI8Gk1G8vBF-a-_P-13">
          <mxGeometry relative="1" as="geometry" />
        </mxCell>
      </root>
    </mxGraphModel>
  </diagram>
</mxfile>
